<?xml version="1.0" encoding="UTF-8" standalone="no"?>
<!-- Created with Inkscape (http://www.inkscape.org/) -->

<svg
   width="600"
   height="372"
   viewBox="0 0 158.75 98.425"
   version="1.1"
   id="svg1"
   inkscape:version="1.4 (86a8ad7, 2024-10-11)"
   sodipodi:docname="cover.svg"
   inkscape:export-filename="cover.png"
   inkscape:export-xdpi="96"
   inkscape:export-ydpi="96"
   xmlns:inkscape="http://www.inkscape.org/namespaces/inkscape"
   xmlns:sodipodi="http://sodipodi.sourceforge.net/DTD/sodipodi-0.dtd"
   xmlns="http://www.w3.org/2000/svg"
   xmlns:svg="http://www.w3.org/2000/svg">
  <sodipodi:namedview
     id="namedview1"
     pagecolor="#ffffff"
     bordercolor="#000000"
     borderopacity="0.25"
     inkscape:showpageshadow="2"
     inkscape:pageopacity="0.0"
     inkscape:pagecheckerboard="0"
     inkscape:deskcolor="#d1d1d1"
     inkscape:document-units="px"
     inkscape:zoom="1.6311518"
     inkscape:cx="324.00418"
     inkscape:cy="113.72332"
     inkscape:window-width="3840"
     inkscape:window-height="2066"
     inkscape:window-x="-11"
     inkscape:window-y="-11"
     inkscape:window-maximized="1"
     inkscape:current-layer="layer1" />
  <defs
     id="defs1" />
  <g
     inkscape:label="图层 1"
     inkscape:groupmode="layer"
     id="layer1">
    <rect
       style="fill:#0099ff;fill-opacity:1;stroke-width:0.266796"
       id="rect1"
       width="158.75"
       height="98.425003"
       x="3.5527137e-15"
       y="-1.5258789e-06" />
    <g
       id="text1"
       style="font-size:15.623px;font-family:'MS PGothic';-inkscape-font-specification:'MS PGothic';text-align:center;text-anchor:middle;fill:#ffffff;stroke-width:0.162741"
       aria-label="JSON&#10;[object Object]"
       transform="translate(0,-5.2916669)">
      <path
         style="font-size:31.75px;font-family:'Maple Mono';-inkscape-font-specification:'Maple Mono'"
         d="m 42.830733,40.755217 q -0.15875,-0.79375 0.22225,-1.2065 0.381,-0.41275 1.2065,-0.41275 0.635,0 0.9525,0.3175 0.34925,0.28575 0.508,1.0795 0.28575,1.42875 1.3335,2.25425 1.0795,0.79375 2.794,0.79375 2.032,0 3.14325,-1.143 1.143,-1.17475 1.143,-3.302 v -12.3825 q 0,-0.635 -0.3175,-0.9525 -0.3175,-0.3175 -0.9525,-0.3175 h -4.7625 q -0.73025,0 -1.0795,-0.34925 -0.34925,-0.34925 -0.34925,-1.0795 0,-0.73025 0.34925,-1.0795 0.34925,-0.34925 1.0795,-0.34925 h 6.35 q 1.30175,0 1.905,0.635 0.635,0.60325 0.635,1.905 v 13.97 q 0,1.61925 -0.508,2.921 -0.47625,1.27 -1.42875,2.19075 -0.92075,0.889 -2.25425,1.397 -1.30175,0.47625 -2.95275,0.47625 -2.88925,0 -4.73075,-1.397 -1.8415,-1.42875 -2.286,-3.96875 z m 30.575263,-13.5255 q -0.4445,-1.143 -1.397,-1.5875 -0.9525,-0.47625 -2.159,-0.47625 -1.778,0 -2.794,0.9525 -1.016,0.9525 -1.016,2.31775 0,0.98425 0.28575,1.61925 0.28575,0.635 0.79375,1.04775 0.53975,0.381 1.23825,0.635 0.6985,0.254 1.49225,0.47625 1.524,0.41275 2.82575,0.92075 1.3335,0.47625 2.31775,1.27 0.98425,0.79375 1.524,2.00025 0.5715,1.2065 0.5715,3.07975 0,1.524 -0.508,2.76225 -0.508,1.2065 -1.4605,2.06375 -0.92075,0.85725 -2.25425,1.3335 -1.3335,0.47625 -3.01625,0.47625 -1.42875,0 -2.63525,-0.34925 -1.2065,-0.34925 -2.12725,-1.016 -0.92075,-0.6985 -1.524,-1.651 -0.60325,-0.98425 -0.8255,-2.2225 -0.09525,-0.60325 0.22225,-1.016 0.3175,-0.41275 0.98425,-0.41275 0.635,0 1.11125,0.254 0.47625,0.254 0.73025,0.9525 0.4445,1.30175 1.4605,1.9685 1.016,0.635 2.6035,0.635 1.016,0 1.80975,-0.254 0.8255,-0.254 1.397,-0.73025 0.5715,-0.47625 0.85725,-1.17475 0.3175,-0.6985 0.3175,-1.61925 0,-1.143 -0.34925,-1.8415 -0.3175,-0.73025 -0.92075,-1.17475 -0.5715,-0.47625 -1.397,-0.762 -0.79375,-0.28575 -1.7145,-0.53975 -1.36525,-0.381 -2.6035,-0.8255 -1.2065,-0.47625 -2.12725,-1.2065 -0.889,-0.73025 -1.42875,-1.8415 -0.508,-1.11125 -0.508,-2.794 0,-1.397 0.47625,-2.50825 0.47625,-1.143 1.3335,-1.9685 0.889,-0.8255 2.12725,-1.27 1.23825,-0.4445 2.7305,-0.4445 1.27,0 2.3495,0.34925 1.0795,0.3175 1.905,0.9525 0.8255,0.60325 1.397,1.49225 0.5715,0.85725 0.79375,1.905 0.15875,0.66675 -0.1905,1.04775 -0.3175,0.381 -1.0795,0.381 -0.635,0 -1.016,-0.28575 -0.34925,-0.28575 -0.60325,-0.92075 z m 15.494013,16.03375 q 1.524,0 2.44475,-0.98425 0.92075,-1.016 1.397,-2.413 0.508,-1.42875 0.66675,-2.9845 0.15875,-1.5875 0.15875,-2.7305 0,-1.11125 -0.15875,-2.63525 -0.15875,-1.55575 -0.66675,-2.95275 -0.47625,-1.42875 -1.397,-2.413 -0.92075,-0.98425 -2.44475,-0.98425 -1.524,0 -2.44475,1.016 -0.92075,0.98425 -1.42875,2.413 -0.47625,1.397 -0.635,2.95275 -0.15875,1.524 -0.15875,2.63525 0,1.143 0.15875,2.69875 0.15875,1.55575 0.635,2.9845 0.508,1.397 1.42875,2.413 0.92075,0.98425 2.44475,0.98425 z m 0,2.8575 q -2.38125,0 -3.8735,-1.143 -1.4605,-1.17475 -2.286,-2.95275 -0.79375,-1.778 -1.0795,-3.8735 -0.28575,-2.0955 -0.28575,-4.0005 0,-1.8415 0.254,-3.90525 0.28575,-2.0955 1.0795,-3.84175 0.8255,-1.778 2.286,-2.921 1.49225,-1.17475 3.90525,-1.17475 2.38125,0 3.84175,1.143 1.49225,1.143 2.286,2.921 0.8255,1.74625 1.11125,3.81 0.28575,2.06375 0.28575,3.937 0,1.905 -0.28575,4.03225 -0.28575,2.0955 -1.11125,3.8735 -0.8255,1.778 -2.286,2.95275 -1.4605,1.143 -3.84175,1.143 z m 12.065011,-21.336 q 0,-1.23825 0.60325,-1.8415 0.60325,-0.635 1.74625,-0.635 0.92075,0 1.4605,0.41275 0.53975,0.381 0.8255,1.17475 l 6.19125,17.145 q 0.0318,0.09525 0.0635,0.15875 0.0318,0.03175 0.0952,0.03175 0.0635,0 0.0953,-0.03175 0.0318,-0.0635 0.0318,-0.15875 v -17.30375 q 0,-0.73025 0.34925,-1.0795 0.34925,-0.34925 1.0795,-0.34925 0.73025,0 1.0795,0.34925 0.34925,0.34925 0.34925,1.0795 v 19.90725 q 0,1.23825 -0.60325,1.87325 -0.60325,0.60325 -1.74625,0.60325 -0.92075,0 -1.4605,-0.381 -0.53975,-0.41275 -0.8255,-1.2065 l -6.19125,-17.145 q -0.0318,-0.09525 -0.0635,-0.127 -0.0318,-0.0635 -0.0952,-0.0635 -0.0635,0 -0.0953,0.0635 -0.0318,0.03175 -0.0318,0.127 v 17.30375 q 0,0.73025 -0.34925,1.0795 -0.34925,0.34925 -1.0795,0.34925 -0.73025,0 -1.0795,-0.34925 -0.34925,-0.34925 -0.34925,-1.0795 z"
         id="path3" />
      <path
         style="font-family:'Maple Mono';-inkscape-font-specification:'Maple Mono'"
         d="m 12.664752,74.944812 q -0.640543,0 -0.953003,-0.31246 -0.296837,-0.296837 -0.296837,-0.93738 v -13.59201 q 0,-0.640543 0.296837,-0.93738 0.31246,-0.31246 0.953003,-0.31246 h 2.81214 q 0.296837,0 0.453067,0.203099 0.171853,0.187476 0.171853,0.499936 0,0.31246 -0.171853,0.515559 -0.15623,0.187476 -0.453067,0.187476 h -2.03099 q -0.31246,0 -0.46869,0.15623 -0.15623,0.15623 -0.15623,0.46869 v 12.02971 q 0,0.31246 0.15623,0.46869 0.15623,0.15623 0.46869,0.15623 h 2.03099 q 0.296837,0 0.453067,0.187476 0.171853,0.203099 0.171853,0.515559 0,0.31246 -0.171853,0.499936 -0.15623,0.203099 -0.453067,0.203099 z m 10.467416,-2.421565 q -0.906134,0 -1.5623,-0.328083 -0.656166,-0.343706 -1.09361,-0.93738 -0.437444,-0.593674 -0.656166,-1.40607 -0.203099,-0.828019 -0.203099,-1.796645 0,-0.968626 0.203099,-1.781022 0.203099,-0.812396 0.640543,-1.390447 0.437444,-0.593674 1.09361,-0.921757 0.671789,-0.343706 1.577923,-0.343706 0.921757,0 1.577923,0.343706 0.671789,0.328083 1.09361,0.921757 0.437444,0.578051 0.640543,1.390447 0.203099,0.812396 0.203099,1.781022 0,0.968626 -0.218722,1.796645 -0.203099,0.812396 -0.640543,1.40607 -0.421821,0.593674 -1.09361,0.93738 -0.656166,0.328083 -1.5623,0.328083 z m 0,-1.40607 q 0.546805,0 0.93738,-0.218722 0.406198,-0.234345 0.656166,-0.62492 0.265591,-0.406198 0.390575,-0.968626 0.124984,-0.578051 0.124984,-1.24984 0,-0.671789 -0.124984,-1.218594 -0.109361,-0.562428 -0.374952,-0.953003 -0.249968,-0.406198 -0.656166,-0.62492 -0.390575,-0.234345 -0.953003,-0.234345 -0.562428,0 -0.968626,0.234345 -0.390575,0.218722 -0.656166,0.62492 -0.249968,0.390575 -0.374952,0.953003 -0.109361,0.562428 -0.109361,1.234217 0,0.671789 0.124984,1.234217 0.124984,0.562428 0.374952,0.968626 0.265591,0.390575 0.656166,0.62492 0.406198,0.218722 0.953003,0.218722 z m 6.796011,1.40607 q -0.359329,0 -0.531182,-0.171853 -0.171853,-0.187476 -0.171853,-0.546805 V 61.509032 q 0,-0.359329 0.171853,-0.531182 0.171853,-0.171853 0.531182,-0.171853 0.359329,0 0.531182,0.171853 0.171853,0.171853 0.171853,0.531182 v 3.733897 q 0.140607,-0.703035 0.703035,-1.156102 0.578051,-0.46869 1.437316,-0.46869 0.984249,0 1.609169,0.421821 0.62492,0.421821 0.968626,1.109233 0.343706,0.671789 0.46869,1.531054 0.124984,0.843642 0.124984,1.687284 0,0.718658 -0.109361,1.468562 -0.109361,0.734281 -0.437444,1.343578 -0.328083,0.593674 -0.921757,0.968626 -0.593674,0.374952 -1.546677,0.374952 -0.453067,0 -0.812396,-0.124984 -0.359329,-0.124984 -0.640543,-0.343706 -0.281214,-0.234345 -0.499936,-0.546805 -0.203099,-0.31246 -0.343706,-0.703035 v 0.999872 q 0,0.359329 -0.171853,0.546805 -0.171853,0.171853 -0.531182,0.171853 z m 2.859009,-1.40607 q 0.515559,0 0.859265,-0.203099 0.343706,-0.218722 0.531182,-0.593674 0.203099,-0.390575 0.281214,-0.906134 0.07811,-0.531182 0.07811,-1.140479 0,-0.593674 -0.06249,-1.171725 -0.06249,-0.593674 -0.281214,-1.046741 -0.203099,-0.46869 -0.593674,-0.749904 -0.390575,-0.281214 -1.062364,-0.281214 -0.421821,0 -0.78115,0.234345 -0.343706,0.234345 -0.593674,0.593674 -0.249968,0.359329 -0.390575,0.78115 -0.140607,0.421821 -0.140607,0.796773 v 1.71853 q 0,0.374952 0.171853,0.734281 0.187476,0.343706 0.484313,0.62492 0.296837,0.265591 0.687412,0.437444 0.390575,0.171853 0.812396,0.171853 z m 9.873742,-4.99936 q 0,-0.31246 -0.15623,-0.46869 -0.15623,-0.15623 -0.46869,-0.15623 h -2.109105 q -0.31246,0 -0.515559,-0.187476 -0.187476,-0.203099 -0.187476,-0.515559 0,-0.296837 0.187476,-0.499936 0.203099,-0.203099 0.515559,-0.203099 h 2.890255 q 0.640543,0 0.93738,0.31246 0.31246,0.296837 0.31246,0.93738 v 7.545909 q 0,0.734281 -0.249968,1.327955 -0.234345,0.593674 -0.656166,1.015495 -0.421821,0.421821 -0.999872,0.656166 -0.562428,0.234345 -1.218594,0.234345 -0.453067,0 -0.859265,-0.109361 -0.390575,-0.109361 -0.734281,-0.31246 -0.343706,-0.187476 -0.640543,-0.453067 -0.296837,-0.265591 -0.562428,-0.562428 -0.09374,-0.09374 -0.140607,-0.218722 -0.03125,-0.109361 -0.03125,-0.218722 0,-0.249968 0.171853,-0.531182 0.187476,-0.281214 0.546805,-0.281214 0.218722,0 0.374952,0.124984 0.171853,0.140607 0.343706,0.328083 0.265591,0.31246 0.62492,0.562428 0.359329,0.265591 0.906134,0.265591 0.328083,0 0.640543,-0.109361 0.31246,-0.109361 0.546805,-0.31246 0.234345,-0.203099 0.374952,-0.499936 0.15623,-0.296837 0.15623,-0.687412 z m 0.46869,-3.577667 q -0.515559,0 -0.812396,-0.265591 -0.296837,-0.265591 -0.296837,-0.718658 0,-0.46869 0.296837,-0.734281 0.296837,-0.281214 0.812396,-0.281214 0.515559,0 0.812396,0.281214 0.296837,0.265591 0.296837,0.734281 0,0.453067 -0.296837,0.718658 -0.296837,0.265591 -0.812396,0.265591 z m 10.608023,7.764631 q 0.296837,0 0.484313,0.218722 0.203099,0.203099 0.203099,0.46869 0,0.140607 -0.07812,0.281214 -0.06249,0.124984 -0.249968,0.31246 -0.249968,0.234345 -0.531182,0.406198 -0.281214,0.171853 -0.609297,0.296837 -0.31246,0.124984 -0.671789,0.171853 -0.343706,0.06249 -0.734281,0.06249 -0.906134,0 -1.624792,-0.296837 -0.703035,-0.31246 -1.202971,-0.874888 -0.484313,-0.578051 -0.749904,-1.390447 -0.265591,-0.828019 -0.265591,-1.843514 0,-0.890511 0.187476,-1.702907 0.203099,-0.828019 0.62492,-1.437316 0.437444,-0.62492 1.124856,-0.984249 0.687412,-0.374952 1.687284,-0.374952 0.93738,0 1.5623,0.328083 0.62492,0.31246 0.999872,0.890511 0.390575,0.578051 0.546805,1.359201 0.171853,0.765527 0.171853,1.687284 0,0.281214 -0.203099,0.515559 -0.203099,0.218722 -0.531182,0.218722 h -4.733769 q 0.06249,0.62492 0.265591,1.109233 0.203099,0.46869 0.515559,0.78115 0.31246,0.296837 0.718658,0.453067 0.421821,0.15623 0.921757,0.15623 0.703035,0 1.109233,-0.218722 0.421821,-0.218722 0.656166,-0.406198 0.124984,-0.109361 0.203099,-0.140607 0.07812,-0.04687 0.203099,-0.04687 z m -4.593162,-2.937124 h 3.812012 q 0.07811,0 0.15623,-0.09374 0.09374,-0.09374 0.09374,-0.421821 0,-0.328083 -0.124984,-0.656166 -0.124984,-0.328083 -0.374952,-0.578051 -0.234345,-0.265591 -0.593674,-0.421821 -0.343706,-0.171853 -0.78115,-0.171853 -0.484313,0 -0.874888,0.171853 -0.374952,0.171853 -0.656166,0.484313 -0.265591,0.31246 -0.437444,0.749904 -0.15623,0.421821 -0.218722,0.93738 z m 8.045851,0.718658 q 0,-1.202971 0.31246,-2.046613 0.31246,-0.843642 0.828019,-1.374824 0.531182,-0.546805 1.234217,-0.796773 0.703035,-0.249968 1.484185,-0.249968 0.593674,0 1.062364,0.109361 0.46869,0.09374 0.812396,0.265591 0.359329,0.171853 0.609297,0.390575 0.249968,0.218722 0.390575,0.453067 0.218722,0.359329 0.15623,0.62492 -0.04687,0.265591 -0.31246,0.421821 -0.281214,0.171853 -0.531182,0.124984 -0.249968,-0.04687 -0.390575,-0.281214 -0.171853,-0.265591 -0.593674,-0.484313 -0.421821,-0.218722 -1.109233,-0.218722 -0.562428,0 -1.031118,0.187476 -0.46869,0.187476 -0.812396,0.562428 -0.328083,0.374952 -0.515559,0.93738 -0.187476,0.546805 -0.187476,1.296709 0,0.765527 0.187476,1.359201 0.203099,0.578051 0.531182,0.968626 0.343706,0.390575 0.812396,0.593674 0.46869,0.187476 0.999872,0.187476 0.406198,0 0.843642,-0.09374 0.437444,-0.109361 0.671789,-0.343706 0.187476,-0.187476 0.453067,-0.218722 0.281214,-0.03125 0.546805,0.187476 0.09374,0.09374 0.140607,0.218722 0.06249,0.109361 0.06249,0.249968 0,0.140607 -0.07812,0.31246 -0.07811,0.15623 -0.234345,0.343706 -0.203099,0.249968 -0.484313,0.406198 -0.281214,0.140607 -0.609297,0.218722 -0.31246,0.07811 -0.656166,0.09374 -0.343706,0.03125 -0.687412,0.03125 -0.859265,0 -1.577923,-0.265591 -0.718658,-0.265591 -1.234217,-0.796773 -0.515559,-0.546805 -0.812396,-1.390447 -0.281214,-0.843642 -0.281214,-1.984121 z m 15.607383,-3.999488 q 0.31246,0 0.46869,0.203099 0.171853,0.187476 0.171853,0.499936 0,0.31246 -0.171853,0.515559 -0.15623,0.187476 -0.46869,0.187476 h -2.874632 v 3.374568 q 0,1.124856 0.328083,1.687284 0.343706,0.562428 0.999872,0.562428 0.31246,0 0.609297,-0.04687 0.296837,-0.04687 0.656166,-0.218722 0.31246,-0.171853 0.546805,-0.07811 0.249968,0.07811 0.421821,0.374952 0.187476,0.31246 0.109361,0.578051 -0.06249,0.249968 -0.359329,0.406198 -0.46869,0.249968 -1.015495,0.31246 -0.546805,0.07811 -1.202971,0.07811 -0.562428,0 -1.031118,-0.203099 -0.453067,-0.203099 -0.78115,-0.609297 -0.328083,-0.421821 -0.515559,-1.062364 -0.171853,-0.640543 -0.171853,-1.515431 v -3.640159 h -1.827891 q -0.31246,0 -0.484313,-0.187476 -0.15623,-0.203099 -0.15623,-0.515559 0,-0.31246 0.15623,-0.499936 0.171853,-0.203099 0.484313,-0.203099 h 1.827891 v -2.03099 q 0,-0.359329 0.171853,-0.531182 0.171853,-0.171853 0.531182,-0.171853 0.359329,0 0.531182,0.171853 0.171853,0.171853 0.171853,0.531182 v 2.03099 z m 15.951095,7.03035 q 0.749904,0 1.202971,-0.484313 0.453067,-0.499936 0.687412,-1.187348 0.249968,-0.703035 0.328083,-1.468562 0.07811,-0.78115 0.07811,-1.343578 0,-0.546805 -0.07811,-1.296709 -0.07811,-0.765527 -0.328083,-1.452939 -0.234345,-0.703035 -0.687412,-1.187348 -0.453067,-0.484313 -1.202971,-0.484313 -0.749904,0 -1.202971,0.499936 -0.453067,0.484313 -0.703035,1.187348 -0.234345,0.687412 -0.31246,1.452939 -0.07811,0.749904 -0.07811,1.296709 0,0.562428 0.07811,1.327955 0.07811,0.765527 0.31246,1.468562 0.249968,0.687412 0.703035,1.187348 0.453067,0.484313 1.202971,0.484313 z m 0,1.40607 q -1.171725,0 -1.906006,-0.562428 -0.718658,-0.578051 -1.124856,-1.452939 -0.390575,-0.874888 -0.531182,-1.906006 -0.140607,-1.031118 -0.140607,-1.968498 0,-0.906134 0.124984,-1.921629 0.140607,-1.031118 0.531182,-1.890383 0.406198,-0.874888 1.124856,-1.437316 0.734281,-0.578051 1.921629,-0.578051 1.171725,0 1.890383,0.562428 0.734281,0.562428 1.124856,1.437316 0.406198,0.859265 0.546805,1.87476 0.140607,1.015495 0.140607,1.937252 0,0.93738 -0.140607,1.984121 -0.140607,1.031118 -0.546805,1.906006 -0.406198,0.874888 -1.124856,1.452939 -0.718658,0.562428 -1.890383,0.562428 z m 6.796015,0 q -0.359329,0 -0.531182,-0.171853 Q 94.84179,72.163918 94.84179,71.804589 V 61.509032 q 0,-0.359329 0.171853,-0.531182 0.171853,-0.171853 0.531182,-0.171853 0.359329,0 0.531182,0.171853 0.171853,0.171853 0.171853,0.531182 v 3.733897 q 0.140607,-0.703035 0.703035,-1.156102 0.578051,-0.46869 1.437316,-0.46869 0.984249,0 1.609169,0.421821 0.62492,0.421821 0.96863,1.109233 0.3437,0.671789 0.46869,1.531054 0.12498,0.843642 0.12498,1.687284 0,0.718658 -0.10936,1.468562 -0.10936,0.734281 -0.43744,1.343578 -0.32809,0.593674 -0.92176,0.968626 -0.593676,0.374952 -1.546679,0.374952 -0.453067,0 -0.812396,-0.124984 -0.359329,-0.124984 -0.640543,-0.343706 -0.281214,-0.234345 -0.499936,-0.546805 -0.203099,-0.31246 -0.343706,-0.703035 v 0.999872 q 0,0.359329 -0.171853,0.546805 -0.171853,0.171853 -0.531182,0.171853 z m 2.859009,-1.40607 q 0.515559,0 0.859265,-0.203099 0.343706,-0.218722 0.531182,-0.593674 0.203099,-0.390575 0.281219,-0.906134 0.0781,-0.531182 0.0781,-1.140479 0,-0.593674 -0.0625,-1.171725 -0.0625,-0.593674 -0.281216,-1.046741 -0.203099,-0.46869 -0.593674,-0.749904 -0.390575,-0.281214 -1.062364,-0.281214 -0.421821,0 -0.78115,0.234345 -0.343706,0.234345 -0.593674,0.593674 -0.249968,0.359329 -0.390575,0.78115 -0.140607,0.421821 -0.140607,0.796773 v 1.71853 q 0,0.374952 0.171853,0.734281 0.187476,0.343706 0.484313,0.62492 0.296837,0.265591 0.687412,0.437444 0.390575,0.171853 0.812396,0.171853 z m 9.873736,-4.99936 q 0,-0.31246 -0.15623,-0.46869 -0.15623,-0.15623 -0.46869,-0.15623 h -2.1091 q -0.31246,0 -0.51556,-0.187476 -0.18748,-0.203099 -0.18748,-0.515559 0,-0.296837 0.18748,-0.499936 0.2031,-0.203099 0.51556,-0.203099 h 2.89025 q 0.64055,0 0.93738,0.31246 0.31246,0.296837 0.31246,0.93738 v 7.545909 q 0,0.734281 -0.24997,1.327955 -0.23434,0.593674 -0.65616,1.015495 -0.42182,0.421821 -0.99987,0.656166 -0.56243,0.234345 -1.2186,0.234345 -0.45306,0 -0.85926,-0.109361 -0.39058,-0.109361 -0.73428,-0.31246 -0.34371,-0.187476 -0.64055,-0.453067 -0.29683,-0.265591 -0.56242,-0.562428 -0.0937,-0.09374 -0.14061,-0.218722 -0.0312,-0.109361 -0.0312,-0.218722 0,-0.249968 0.17186,-0.531182 0.18747,-0.281214 0.5468,-0.281214 0.21872,0 0.37495,0.124984 0.17186,0.140607 0.34371,0.328083 0.26559,0.31246 0.62492,0.562428 0.35933,0.265591 0.90613,0.265591 0.32809,0 0.64055,-0.109361 0.31246,-0.109361 0.5468,-0.31246 0.23435,-0.203099 0.37495,-0.499936 0.15623,-0.296837 0.15623,-0.687412 z m 0.46869,-3.577667 q -0.51556,0 -0.81239,-0.265591 -0.29684,-0.265591 -0.29684,-0.718658 0,-0.46869 0.29684,-0.734281 0.29683,-0.281214 0.81239,-0.281214 0.51556,0 0.8124,0.281214 0.29684,0.265591 0.29684,0.734281 0,0.453067 -0.29684,0.718658 -0.29684,0.265591 -0.8124,0.265591 z m 10.60802,7.764631 q 0.29684,0 0.48431,0.218722 0.2031,0.203099 0.2031,0.46869 0,0.140607 -0.0781,0.281214 -0.0625,0.124984 -0.24997,0.31246 -0.24997,0.234345 -0.53118,0.406198 -0.28122,0.171853 -0.6093,0.296837 -0.31246,0.124984 -0.67179,0.171853 -0.3437,0.06249 -0.73428,0.06249 -0.90613,0 -1.62479,-0.296837 -0.70304,-0.31246 -1.20297,-0.874888 -0.48431,-0.578051 -0.74991,-1.390447 -0.26559,-0.828019 -0.26559,-1.843514 0,-0.890511 0.18748,-1.702907 0.2031,-0.828019 0.62492,-1.437316 0.43744,-0.62492 1.12486,-0.984249 0.68741,-0.374952 1.68728,-0.374952 0.93738,0 1.5623,0.328083 0.62492,0.31246 0.99987,0.890511 0.39058,0.578051 0.54681,1.359201 0.17185,0.765527 0.17185,1.687284 0,0.281214 -0.2031,0.515559 -0.2031,0.218722 -0.53118,0.218722 h -4.73377 q 0.0625,0.62492 0.26559,1.109233 0.2031,0.46869 0.51556,0.78115 0.31246,0.296837 0.71866,0.453067 0.42182,0.15623 0.92175,0.15623 0.70304,0 1.10924,-0.218722 0.42182,-0.218722 0.65616,-0.406198 0.12499,-0.109361 0.2031,-0.140607 0.0781,-0.04687 0.2031,-0.04687 z m -4.59316,-2.937124 h 3.81201 q 0.0781,0 0.15623,-0.09374 0.0937,-0.09374 0.0937,-0.421821 0,-0.328083 -0.12498,-0.656166 -0.12499,-0.328083 -0.37496,-0.578051 -0.23434,-0.265591 -0.59367,-0.421821 -0.34371,-0.171853 -0.78115,-0.171853 -0.48431,0 -0.87489,0.171853 -0.37495,0.171853 -0.65616,0.484313 -0.2656,0.31246 -0.43745,0.749904 -0.15623,0.421821 -0.21872,0.93738 z m 8.04585,0.718658 q 0,-1.202971 0.31246,-2.046613 0.31246,-0.843642 0.82802,-1.374824 0.53119,-0.546805 1.23422,-0.796773 0.70304,-0.249968 1.48419,-0.249968 0.59367,0 1.06236,0.109361 0.46869,0.09374 0.8124,0.265591 0.35932,0.171853 0.60929,0.390575 0.24997,0.218722 0.39058,0.453067 0.21872,0.359329 0.15623,0.62492 -0.0469,0.265591 -0.31246,0.421821 -0.28122,0.171853 -0.53118,0.124984 -0.24997,-0.04687 -0.39058,-0.281214 -0.17185,-0.265591 -0.59367,-0.484313 -0.42182,-0.218722 -1.10924,-0.218722 -0.56242,0 -1.03111,0.187476 -0.46869,0.187476 -0.8124,0.562428 -0.32808,0.374952 -0.51556,0.93738 -0.18748,0.546805 -0.18748,1.296709 0,0.765527 0.18748,1.359201 0.2031,0.578051 0.53118,0.968626 0.34371,0.390575 0.8124,0.593674 0.46869,0.187476 0.99987,0.187476 0.4062,0 0.84364,-0.09374 0.43745,-0.109361 0.67179,-0.343706 0.18748,-0.187476 0.45307,-0.218722 0.28121,-0.03125 0.5468,0.187476 0.0937,0.09374 0.14061,0.218722 0.0625,0.109361 0.0625,0.249968 0,0.140607 -0.0781,0.31246 -0.0781,0.15623 -0.23435,0.343706 -0.2031,0.249968 -0.48431,0.406198 -0.28121,0.140607 -0.6093,0.218722 -0.31246,0.07811 -0.65616,0.09374 -0.34371,0.03125 -0.68742,0.03125 -0.85926,0 -1.57792,-0.265591 -0.71866,-0.265591 -1.23422,-0.796773 -0.51555,-0.546805 -0.81239,-1.390447 -0.28122,-0.843642 -0.28122,-1.984121 z m 15.60739,-3.999488 q 0.31246,0 0.46869,0.203099 0.17185,0.187476 0.17185,0.499936 0,0.31246 -0.17185,0.515559 -0.15623,0.187476 -0.46869,0.187476 h -2.87463 v 3.374568 q 0,1.124856 0.32808,1.687284 0.34371,0.562428 0.99987,0.562428 0.31246,0 0.6093,-0.04687 0.29684,-0.04687 0.65617,-0.218722 0.31246,-0.171853 0.5468,-0.07811 0.24997,0.07811 0.42182,0.374952 0.18748,0.31246 0.10936,0.578051 -0.0625,0.249968 -0.35932,0.406198 -0.46869,0.249968 -1.0155,0.31246 -0.5468,0.07811 -1.20297,0.07811 -0.56243,0 -1.03112,-0.203099 -0.45307,-0.203099 -0.78115,-0.609297 -0.32808,-0.421821 -0.51556,-1.062364 -0.17185,-0.640543 -0.17185,-1.515431 v -3.640159 h -1.82789 q -0.31246,0 -0.48431,-0.187476 -0.15623,-0.203099 -0.15623,-0.515559 0,-0.31246 0.15623,-0.499936 0.17185,-0.203099 0.48431,-0.203099 h 1.82789 v -2.03099 q 0,-0.359329 0.17185,-0.531182 0.17186,-0.171853 0.53118,-0.171853 0.35933,0 0.53119,0.171853 0.17185,0.171853 0.17185,0.531182 v 2.03099 z m 7.67089,10.857985 h -2.81214 q -0.29684,0 -0.46869,-0.203099 -0.15623,-0.187476 -0.15623,-0.499936 0,-0.31246 0.15623,-0.515559 0.17185,-0.187476 0.46869,-0.187476 h 2.03099 q 0.31246,0 0.46869,-0.15623 0.15623,-0.15623 0.15623,-0.46869 v -12.02971 q 0,-0.31246 -0.15623,-0.46869 -0.15623,-0.15623 -0.46869,-0.15623 h -2.03099 q -0.29684,0 -0.46869,-0.187476 -0.15623,-0.203099 -0.15623,-0.515559 0,-0.31246 0.15623,-0.499936 0.17185,-0.203099 0.46869,-0.203099 h 2.81214 q 0.64054,0 0.93738,0.31246 0.31246,0.296837 0.31246,0.93738 v 13.59201 q 0,0.640543 -0.31246,0.93738 -0.29684,0.31246 -0.93738,0.31246 z"
         id="path4" />
    </g>
  </g>
</svg>
