<?xml version="1.0" encoding="UTF-8" standalone="no"?>
<!-- Created with Inkscape (http://www.inkscape.org/) -->

<svg
   width="30"
   height="30"
   viewBox="0 0 7.9374998 7.9375"
   version="1.1"
   id="svg1"
   xmlns="http://www.w3.org/2000/svg"
   xmlns:svg="http://www.w3.org/2000/svg">
  <defs
     id="defs1" />
  <g
     id="layer1">
    <path
       d="M 3.038111,6.5396167 2.7745642,6.5156579 Q 2.558935,6.4964909 2.3912234,6.415031 2.2235118,6.3335711 2.1085096,6.2089853 1.9935073,6.0891913 1.940798,5.9214797 1.8880886,5.7537681 1.9024639,5.5573059 L 1.9743403,4.6899974 Q 1.9839238,4.5893704 1.9647568,4.5079105 1.9455897,4.4216588 1.8976721,4.3593659 1.8497545,4.2922813 1.7778781,4.258739 1.7107935,4.2204049 1.6149583,4.2204049 H 1.5047478 q -0.1485446,0 -0.2252127,-0.08146 -0.076668,-0.086252 -0.076668,-0.2347962 0,-0.1485446 0.076668,-0.2300045 0.076668,-0.086252 0.2252127,-0.086252 h 0.1102105 q 0.095835,0 0.1677116,-0.033542 0.071876,-0.038334 0.1150022,-0.100627 0.047918,-0.067085 0.067085,-0.1533363 0.019167,-0.086252 0.00958,-0.1820869 L 1.9024639,2.2989092 Q 1.8880886,2.102447 1.940798,1.9491107 1.9935073,1.7957744 2.1085096,1.6855639 2.2235118,1.5705616 2.3912234,1.503477 2.5637268,1.4363924 2.7745642,1.4220171 L 3.038111,1.3980583 q 0.1437528,-0.00958 0.2156292,0.071876 0.076668,0.08146 0.076668,0.2300045 0,0.1485445 -0.076668,0.2156292 Q 3.1818638,1.9778612 3.038111,2.00182 L 2.8751912,2.0209871 Q 2.7074796,2.0449459 2.6116444,2.1551564 2.5158092,2.2653668 2.539768,2.4570372 L 2.611644,3.1518424 Q 2.6260196,3.3051788 2.578102,3.4489316 2.5349762,3.5926844 2.4439328,3.6981031 2.3528893,3.8035218 2.21872,3.8658147 2.170802,3.8897737 2.1133013,3.9041487 2.1660103,3.9185237 2.21872,3.9424827 2.3480976,4.0047757 2.439141,4.1101943 2.534976,4.215613 2.578102,4.3593658 2.621228,4.4983269 2.611644,4.656455 L 2.539768,5.413553 q -0.00958,0.095835 0.00958,0.1725034 0.019167,0.071876 0.062293,0.1245858 0.043126,0.052709 0.1102104,0.086252 0.067085,0.033542 0.1533364,0.047918 l 0.1629198,0.023959 q 0.1437528,0.023959 0.2156292,0.1054188 0.076668,0.08146 0.076668,0.2300044 0,0.1485446 -0.076668,0.2443798 -0.071876,0.100627 -0.2156292,0.091043 z m 1.8612779,0 Q 4.7556361,6.5491967 4.678968,6.4485737 4.607092,6.3527387 4.607092,6.2041939 q 0,-0.1485445 0.071876,-0.2300044 0.076668,-0.08146 0.2204209,-0.1054188 l 0.1629199,-0.023959 q 0.086252,-0.014375 0.1533363,-0.047918 0.067085,-0.033542 0.1102105,-0.086252 0.043126,-0.052709 0.062293,-0.1245858 0.019167,-0.076668 0.00958,-0.1725034 L 5.3258556,4.6564551 Q 5.316272,4.498327 5.3593979,4.3593659 5.4025237,4.2156131 5.4935672,4.1101944 5.5894024,4.0047757 5.7187799,3.9424828 5.7714892,3.918524 5.8241986,3.9041488 5.7666975,3.8897735 5.7187799,3.8658147 5.5846106,3.8035218 5.4935672,3.6981031 5.4025237,3.5926844 5.3546061,3.4489316 5.3114803,3.3051788 5.3258556,3.1518424 L 5.397732,2.4570372 Q 5.4216908,2.2653668 5.3258556,2.1551564 5.2300204,2.0449459 5.0623088,2.0209871 L 4.8993889,2.00182 Q 4.7556361,1.9778612 4.678968,1.9155684 4.6070916,1.8484837 4.6070916,1.6999392 q 0,-0.1485446 0.071876,-0.2300045 0.076668,-0.08146 0.2204209,-0.071876 l 0.2635468,0.023959 q 0.2108375,0.014375 0.3785491,0.08146 0.1725033,0.067085 0.2875056,0.1820869 0.1150022,0.1102105 0.1677115,0.2635468 0.052709,0.1533363 0.038334,0.3497985 l -0.071876,0.8193909 q -0.00958,0.095835 0.00958,0.1820869 0.019167,0.086252 0.062293,0.1533363 0.047918,0.062293 0.119794,0.100627 0.076668,0.033542 0.1677116,0.033542 h 0.1102105 q 0.1485446,0 0.2252127,0.086252 0.076668,0.08146 0.076668,0.2300045 0,0.1485445 -0.076668,0.2347962 -0.076668,0.08146 -0.2252127,0.08146 h -0.110207 q -0.091043,0 -0.1629198,0.038334 -0.071876,0.033542 -0.119794,0.1006269 -0.047918,0.062293 -0.067085,0.1485446 -0.019167,0.08146 -0.00958,0.1820869 L 6.035036,5.5573059 Q 6.0494113,5.7537681 5.9967019,5.9214797 5.9439926,6.0891913 5.8289904,6.2089853 5.7139881,6.3335711 5.5462765,6.415031 5.3785649,6.4964909 5.1629357,6.5156579 Z"
       id="text1"
       style="font-weight:bold;font-size:4.79176px;line-height:0.9;font-family:'Maple Mono';-inkscape-font-specification:'Maple Mono Bold';text-align:center;letter-spacing:0.529167px;text-anchor:middle;fill:#ffffff;stroke-width:0.449226"
       aria-label="{}" />
  </g>
</svg>
